<?xml version="1.0" standalone="no"?>
<!DOCTYPE svg PUBLIC "-//W3C//DTD SVG 20010904//EN"
 "http://www.w3.org/TR/2001/REC-SVG-20010904/DTD/svg10.dtd">
<svg version="1.0" xmlns="http://www.w3.org/2000/svg"
 width="612.000000pt" height="612.000000pt" viewBox="0 0 612.000000 612.000000"
 preserveAspectRatio="xMidYMid meet">
<metadata>
Created by potrace 1.14, written by Peter Selinger 2001-2017
</metadata>
<g transform="translate(0.000000,612.000000) scale(0.100000,-0.100000)"
fill="#000000" stroke="none">
<path d="M2740 5715 c-431 -53 -866 -219 -1205 -460 -114 -81 -196 -146 -265
-210 -489 -452 -789 -1030 -866 -1665 -18 -152 -18 -483 1 -635 61 -507 255
-965 581 -1370 87 -109 289 -311 399 -398 209 -167 504 -336 736 -421 594
-218 1195 -230 1779 -36 182 60 301 111 443 191 485 270 841 637 1103 1134
210 399 320 929 285 1380 -34 440 -144 797 -365 1189 -31 54 -167 251 -223
321 -175 218 -468 476 -693 609 -349 206 -698 327 -1070 372 -143 17 -498 16
-640 -1z m-290 -992 c47 -17 130 -49 185 -72 164 -69 222 -82 390 -88 126 -4
164 -2 240 15 83 18 220 68 335 120 100 45 160 57 295 57 147 0 221 -15 320
-66 154 -80 247 -175 320 -327 83 -170 95 -343 46 -635 -51 -299 -95 -459
-212 -758 -66 -170 -96 -264 -120 -379 -8 -34 -13 -178 -14 -385 -3 -475 -39
-697 -143 -899 -66 -126 -153 -159 -240 -89 -53 42 -142 180 -259 399 -179
334 -242 432 -340 525 -77 74 -114 92 -188 93 -81 1 -139 -29 -222 -118 -87
-91 -149 -189 -294 -461 -196 -364 -281 -475 -365 -475 -40 0 -90 23 -116 54
-39 45 -90 161 -118 271 -52 203 -63 316 -65 675 -3 404 -15 479 -116 731 -62
157 -99 257 -120 329 -118 398 -167 747 -130 935 47 239 182 416 394 515 120
56 188 70 332 66 103 -3 132 -8 205 -33z"/>
</g>
</svg>
